<svg width="1440" height="500" viewBox="0 0 1440 500" fill="none" xmlns="http://www.w3.org/2000/svg">
<g clip-path="url(#clip0)">
<rect width="1440" height="500" fill="#00C5FB"/>
<path d="M278.6 225.6C278.6 237.267 274.4 247.3 266 255.7C258.067 263.633 248.033 267.6 235.9 267.6C219.1 267.6 206.033 261.767 196.7 250.1C187.367 237.967 182.7 223.967 182.7 208.1C182.7 183.833 189.933 161.9 204.4 142.3C218.867 122.233 235.433 105.433 254.1 91.9L277.9 115.7C271.833 121.767 264.6 129.233 256.2 138.1C247.8 146.967 243.6 156.067 243.6 165.4C243.6 171.467 246.4 176.833 252 181.5C258.067 186.167 263.9 191.767 269.5 198.3C275.567 204.833 278.6 213.933 278.6 225.6ZM415.1 225.6C415.1 237.267 410.9 247.3 402.5 255.7C394.567 263.633 384.533 267.6 372.4 267.6C355.6 267.6 342.533 261.767 333.2 250.1C323.867 237.967 319.2 223.967 319.2 208.1C319.2 183.833 326.433 161.9 340.9 142.3C355.367 122.233 371.933 105.433 390.6 91.9L414.4 115.7C408.333 121.767 401.1 129.233 392.7 138.1C384.3 146.967 380.1 156.067 380.1 165.4C380.1 171.467 382.9 176.833 388.5 181.5C394.567 186.167 400.4 191.767 406 198.3C412.067 204.833 415.1 213.933 415.1 225.6Z" fill="white"/>
<path d="M1008 382.8C1014.07 376.267 1021.3 368.567 1029.7 359.7C1038.1 350.833 1042.3 341.967 1042.3 333.1C1042.3 326.567 1039.27 321.2 1033.2 317C1027.6 312.333 1021.77 306.733 1015.7 300.2C1010.1 293.667 1007.3 284.567 1007.3 272.9C1007.3 260.767 1011.5 250.733 1019.9 242.8C1028.77 234.867 1039.03 230.9 1050.7 230.9C1067.5 230.9 1080.33 236.967 1089.2 249.1C1098.53 260.767 1103.2 274.533 1103.2 290.4C1103.2 314.667 1095.97 336.833 1081.5 356.9C1067.5 376.5 1050.93 393.067 1031.8 406.6L1008 382.8ZM1144.5 382.8C1150.57 376.267 1157.8 368.567 1166.2 359.7C1174.6 350.833 1178.8 341.967 1178.8 333.1C1178.8 326.567 1175.77 321.2 1169.7 317C1164.1 312.333 1158.27 306.733 1152.2 300.2C1146.6 293.667 1143.8 284.567 1143.8 272.9C1143.8 260.767 1148 250.733 1156.4 242.8C1165.27 234.867 1175.53 230.9 1187.2 230.9C1204 230.9 1216.83 236.967 1225.7 249.1C1235.03 260.767 1239.7 274.533 1239.7 290.4C1239.7 314.667 1232.47 336.833 1218 356.9C1204 376.5 1187.43 393.067 1168.3 406.6L1144.5 382.8Z" fill="white"/>
</g>
<defs>
<clipPath id="clip0">
<rect width="1440" height="500" fill="white"/>
</clipPath>
</defs>
</svg>
