<svg width="259" height="80" viewBox="0 0 259 80" fill="none" xmlns="http://www.w3.org/2000/svg">
<rect width="259" height="80" rx="6" fill="white"/>
<path fill-rule="evenodd" clip-rule="evenodd" d="M40.0707 67.4286C55.2191 67.4286 67.4993 55.1484 67.4993 40C67.4993 24.8516 55.2191 12.5714 40.0707 12.5714C24.9223 12.5714 12.6421 24.8516 12.6421 40C12.6421 55.1484 24.9223 67.4286 40.0707 67.4286ZM40.0707 72C57.7438 72 72.0707 57.6731 72.0707 40C72.0707 22.3269 57.7438 8 40.0707 8C22.3976 8 8.07068 22.3269 8.07068 40C8.07068 57.6731 22.3976 72 40.0707 72Z" fill="#00C5FB"/>
<path d="M40.0707 66.2858L17.2136 26.2858L62.9279 26.2858L40.0707 66.2858Z" fill="#00C5FB"/>
<path fill-rule="evenodd" clip-rule="evenodd" d="M55.7197 24.3326L51.7607 22.0469L44.6946 34.2857H30.1732L40.0707 51.4286L48.2414 37.2764L48.2453 37.2787L55.7197 24.3326Z" fill="white"/>
<path d="M94 28.5918C91.1055 27.7598 88.9961 26.7402 87.6719 25.5332C86.3594 24.3145 85.7031 22.8145 85.7031 21.0332C85.7031 19.0176 86.5059 17.3535 88.1113 16.041C89.7285 14.7168 91.8262 14.0547 94.4043 14.0547C96.1621 14.0547 97.7266 14.3945 99.0977 15.0742C100.48 15.7539 101.547 16.6914 102.297 17.8867C103.059 19.082 103.439 20.3887 103.439 21.8066H100.047C100.047 20.2598 99.5547 19.0469 98.5703 18.168C97.5859 17.2773 96.1973 16.832 94.4043 16.832C92.7402 16.832 91.4395 17.2012 90.502 17.9395C89.5762 18.666 89.1133 19.6797 89.1133 20.9805C89.1133 22.0234 89.5527 22.9082 90.4316 23.6348C91.3223 24.3496 92.8281 25.0059 94.9492 25.6035C97.082 26.2012 98.7461 26.8633 99.9414 27.5898C101.148 28.3047 102.039 29.1426 102.613 30.1035C103.199 31.0645 103.492 32.1953 103.492 33.4961C103.492 35.5703 102.684 37.2344 101.066 38.4883C99.4492 39.7305 97.2871 40.3516 94.5801 40.3516C92.8223 40.3516 91.1816 40.0176 89.6582 39.3496C88.1348 38.6699 86.957 37.7441 86.125 36.5723C85.3047 35.4004 84.8945 34.0703 84.8945 32.582H88.2871C88.2871 34.1289 88.8555 35.3535 89.9922 36.2559C91.1406 37.1465 92.6699 37.5918 94.5801 37.5918C96.3613 37.5918 97.7266 37.2285 98.6758 36.502C99.625 35.7754 100.1 34.7852 100.1 33.5312C100.1 32.2773 99.6602 31.3105 98.7812 30.6309C97.9023 29.9395 96.3086 29.2598 94 28.5918ZM127.521 28.0293C127.521 30.5371 127.1 32.7285 126.256 34.6035C125.412 36.4668 124.217 37.8906 122.67 38.875C121.123 39.8594 119.318 40.3516 117.256 40.3516C115.24 40.3516 113.453 39.8594 111.895 38.875C110.336 37.8789 109.123 36.4668 108.256 34.6387C107.4 32.7988 106.961 30.6719 106.938 28.2578V26.4121C106.938 23.9512 107.365 21.7773 108.221 19.8906C109.076 18.0039 110.283 16.5625 111.842 15.5664C113.412 14.5586 115.205 14.0547 117.221 14.0547C119.271 14.0547 121.076 14.5527 122.635 15.5488C124.205 16.5332 125.412 17.9688 126.256 19.8555C127.1 21.7305 127.521 23.916 127.521 26.4121V28.0293ZM124.164 26.377C124.164 23.3418 123.555 21.0156 122.336 19.3984C121.117 17.7695 119.412 16.9551 117.221 16.9551C115.088 16.9551 113.406 17.7695 112.176 19.3984C110.957 21.0156 110.33 23.2656 110.295 26.1484V28.0293C110.295 30.9707 110.91 33.2852 112.141 34.9727C113.383 36.6484 115.088 37.4863 117.256 37.4863C119.436 37.4863 121.123 36.6953 122.318 35.1133C123.514 33.5195 124.129 31.2402 124.164 28.2754V26.377ZM146.699 28.6973H135.959V40H132.584V14.4062H148.439V17.1836H135.959V25.9375H146.699V28.6973ZM160.955 35.5176L168.268 14.4062H171.959L162.467 40H159.479L150.004 14.4062H153.678L160.955 35.5176ZM189.871 28.1699H178.779V37.2402H191.664V40H175.404V14.4062H191.488V17.1836H178.779V25.4102H189.871V28.1699ZM215.535 40H212.143L199.258 20.2773V40H195.865V14.4062H199.258L212.178 34.2168V14.4062H215.535V40ZM238.686 17.1836H230.459V40H227.102V17.1836H218.893V14.4062H238.686V17.1836Z" fill="#00C5FB"/>
<path d="M96.9512 50.3472C96.9512 51.5314 96.752 52.5662 96.3535 53.4517C95.9551 54.3315 95.3906 55.0039 94.6602 55.4688C93.9297 55.9336 93.0775 56.166 92.1035 56.166C91.1517 56.166 90.3078 55.9336 89.5718 55.4688C88.8358 54.9984 88.263 54.3315 87.8535 53.4683C87.4495 52.5994 87.242 51.5951 87.231 50.4551V49.5835C87.231 48.4214 87.4329 47.3949 87.8369 46.5039C88.2409 45.613 88.8109 44.9323 89.5469 44.4619C90.2884 43.986 91.1351 43.748 92.0869 43.748C93.0553 43.748 93.9076 43.9832 94.6436 44.4536C95.3851 44.9185 95.9551 45.5964 96.3535 46.4873C96.752 47.3727 96.9512 48.4048 96.9512 49.5835V50.3472ZM95.3657 49.5669C95.3657 48.1336 95.078 47.0352 94.5024 46.2715C93.9269 45.5023 93.1217 45.1177 92.0869 45.1177C91.0798 45.1177 90.2856 45.5023 89.7046 46.2715C89.1291 47.0352 88.833 48.0977 88.8164 49.459V50.3472C88.8164 51.7362 89.1069 52.8291 89.688 53.626C90.2746 54.4173 91.0798 54.813 92.1035 54.813C93.1328 54.813 93.9297 54.4395 94.4941 53.6924C95.0586 52.9398 95.3491 51.8634 95.3657 50.4634V49.5669ZM103.442 48.3965C103.21 48.3577 102.958 48.3384 102.687 48.3384C101.68 48.3384 100.996 48.7673 100.637 49.625V56H99.1011V47.0186H100.595L100.62 48.0562C101.124 47.2537 101.838 46.8525 102.762 46.8525C103.061 46.8525 103.287 46.8913 103.442 46.9688V48.3965ZM104.331 51.4346C104.331 50.0345 104.654 48.9222 105.302 48.0977C105.949 47.2676 106.807 46.8525 107.875 46.8525C108.971 46.8525 109.826 47.2399 110.44 48.0146L110.515 47.0186H111.917V55.7842C111.917 56.9463 111.572 57.8621 110.88 58.5317C110.194 59.2013 109.27 59.5361 108.107 59.5361C107.46 59.5361 106.826 59.3978 106.207 59.1211C105.587 58.8444 105.114 58.4653 104.787 57.9839L105.584 57.0625C106.243 57.876 107.048 58.2827 108 58.2827C108.747 58.2827 109.328 58.0724 109.743 57.6519C110.163 57.2313 110.374 56.6392 110.374 55.8755V55.1035C109.759 55.8118 108.921 56.166 107.858 56.166C106.807 56.166 105.955 55.7427 105.302 54.896C104.654 54.0493 104.331 52.8955 104.331 51.4346ZM105.875 51.6089C105.875 52.6216 106.082 53.4185 106.497 53.9995C106.912 54.575 107.493 54.8628 108.24 54.8628C109.209 54.8628 109.92 54.4229 110.374 53.543V49.4424C109.903 48.5846 109.198 48.1558 108.257 48.1558C107.51 48.1558 106.926 48.4463 106.505 49.0273C106.085 49.6084 105.875 50.4689 105.875 51.6089ZM119.787 56C119.698 55.8229 119.626 55.5075 119.571 55.0537C118.857 55.7952 118.005 56.166 117.014 56.166C116.129 56.166 115.401 55.917 114.831 55.4189C114.267 54.9154 113.984 54.279 113.984 53.5098C113.984 52.5745 114.339 51.8496 115.047 51.335C115.761 50.8148 116.762 50.5547 118.052 50.5547H119.546V49.8491C119.546 49.3123 119.385 48.8862 119.064 48.5708C118.743 48.2498 118.27 48.0894 117.645 48.0894C117.097 48.0894 116.638 48.2277 116.267 48.5044C115.896 48.7811 115.711 49.1159 115.711 49.5088H114.167C114.167 49.0605 114.325 48.6289 114.64 48.2139C114.961 47.7933 115.393 47.4613 115.935 47.2178C116.483 46.9743 117.083 46.8525 117.736 46.8525C118.771 46.8525 119.582 47.1126 120.168 47.6328C120.755 48.1475 121.059 48.8586 121.082 49.7661V53.8999C121.082 54.7244 121.187 55.3802 121.397 55.8672V56H119.787ZM117.238 54.8296C117.72 54.8296 118.176 54.7051 118.608 54.4561C119.04 54.207 119.352 53.8833 119.546 53.4849V51.6421H118.342C116.461 51.6421 115.52 52.1927 115.52 53.2939C115.52 53.7754 115.681 54.1517 116.001 54.4229C116.322 54.694 116.735 54.8296 117.238 54.8296ZM124.941 47.0186L124.991 48.1475C125.677 47.2842 126.574 46.8525 127.681 46.8525C129.579 46.8525 130.536 47.9233 130.553 50.0649V56H129.017V50.0566C129.012 49.4092 128.862 48.9305 128.569 48.6206C128.281 48.3107 127.83 48.1558 127.216 48.1558C126.718 48.1558 126.281 48.2886 125.904 48.5542C125.528 48.8198 125.235 49.1685 125.024 49.6001V56H123.489V47.0186H124.941ZM134.537 56H133.001V47.0186H134.537V56ZM132.877 44.6362C132.877 44.3872 132.952 44.1769 133.101 44.0054C133.256 43.8338 133.483 43.748 133.782 43.748C134.081 43.748 134.307 43.8338 134.462 44.0054C134.617 44.1769 134.695 44.3872 134.695 44.6362C134.695 44.8853 134.617 45.0928 134.462 45.2588C134.307 45.4248 134.081 45.5078 133.782 45.5078C133.483 45.5078 133.256 45.4248 133.101 45.2588C132.952 45.0928 132.877 44.8853 132.877 44.6362ZM138.447 54.7466H143.701V56H136.571V54.8711L141.526 48.2886H136.646V47.0186H143.452V48.106L138.447 54.7466ZM150.981 56C150.892 55.8229 150.82 55.5075 150.765 55.0537C150.051 55.7952 149.199 56.166 148.208 56.166C147.323 56.166 146.595 55.917 146.025 55.4189C145.461 54.9154 145.179 54.279 145.179 53.5098C145.179 52.5745 145.533 51.8496 146.241 51.335C146.955 50.8148 147.957 50.5547 149.246 50.5547H150.74V49.8491C150.74 49.3123 150.58 48.8862 150.259 48.5708C149.938 48.2498 149.465 48.0894 148.839 48.0894C148.292 48.0894 147.832 48.2277 147.461 48.5044C147.091 48.7811 146.905 49.1159 146.905 49.5088H145.361C145.361 49.0605 145.519 48.6289 145.834 48.2139C146.155 47.7933 146.587 47.4613 147.129 47.2178C147.677 46.9743 148.278 46.8525 148.931 46.8525C149.965 46.8525 150.776 47.1126 151.363 47.6328C151.949 48.1475 152.254 48.8586 152.276 49.7661V53.8999C152.276 54.7244 152.381 55.3802 152.591 55.8672V56H150.981ZM148.433 54.8296C148.914 54.8296 149.371 54.7051 149.802 54.4561C150.234 54.207 150.547 53.8833 150.74 53.4849V51.6421H149.537C147.655 51.6421 146.714 52.1927 146.714 53.2939C146.714 53.7754 146.875 54.1517 147.196 54.4229C147.517 54.694 147.929 54.8296 148.433 54.8296ZM160.983 44.8438V47.0186H162.66V48.2056H160.983V53.7754C160.983 54.1351 161.058 54.4062 161.208 54.5889C161.357 54.766 161.611 54.8545 161.971 54.8545C162.148 54.8545 162.392 54.8213 162.702 54.7549V56C162.298 56.1107 161.905 56.166 161.523 56.166C160.837 56.166 160.319 55.9585 159.971 55.5435C159.622 55.1284 159.448 54.5391 159.448 53.7754V48.2056H157.812V47.0186H159.448V44.8438H160.983ZM170.006 55.1118C169.409 55.8146 168.532 56.166 167.375 56.166C166.418 56.166 165.687 55.8893 165.184 55.3359C164.686 54.777 164.434 53.9525 164.428 52.8623V47.0186H165.964V52.8208C165.964 54.1821 166.517 54.8628 167.624 54.8628C168.797 54.8628 169.577 54.4256 169.965 53.5513V47.0186H171.5V56H170.04L170.006 55.1118ZM179.071 53.6177C179.071 53.2026 178.913 52.8817 178.598 52.6548C178.288 52.4224 177.743 52.2231 176.962 52.0571C176.188 51.8911 175.571 51.6919 175.111 51.4595C174.658 51.2271 174.32 50.9504 174.099 50.6294C173.883 50.3084 173.775 49.9266 173.775 49.4839C173.775 48.7479 174.085 48.1253 174.705 47.6162C175.33 47.1071 176.127 46.8525 177.095 46.8525C178.113 46.8525 178.938 47.1154 179.569 47.6411C180.205 48.1668 180.523 48.8392 180.523 49.6582H178.979C178.979 49.2376 178.8 48.8752 178.44 48.5708C178.086 48.2664 177.638 48.1143 177.095 48.1143C176.536 48.1143 176.099 48.236 175.784 48.4795C175.468 48.723 175.311 49.0412 175.311 49.4341C175.311 49.8049 175.457 50.0843 175.75 50.2725C176.044 50.4606 176.572 50.6405 177.336 50.812C178.105 50.9836 178.728 51.1883 179.204 51.4263C179.68 51.6642 180.031 51.952 180.258 52.2896C180.49 52.6216 180.606 53.0283 180.606 53.5098C180.606 54.3122 180.285 54.9569 179.644 55.4438C179.002 55.9253 178.169 56.166 177.145 56.166C176.426 56.166 175.789 56.0387 175.236 55.7842C174.682 55.5296 174.248 55.1755 173.933 54.7217C173.623 54.2624 173.468 53.7671 173.468 53.2358H175.003C175.031 53.7505 175.236 54.16 175.618 54.4644C176.005 54.7632 176.514 54.9126 177.145 54.9126C177.726 54.9126 178.191 54.7964 178.54 54.564C178.894 54.326 179.071 54.0106 179.071 53.6177ZM189.787 53.9165L192.012 47.0186H193.581L190.36 56H189.189L185.936 47.0186H187.504L189.787 53.9165ZM198.669 56.166C197.451 56.166 196.461 55.7676 195.697 54.9707C194.934 54.1683 194.552 53.0975 194.552 51.7583V51.4761C194.552 50.5851 194.721 49.791 195.058 49.0938C195.401 48.391 195.877 47.8431 196.486 47.4502C197.1 47.0518 197.764 46.8525 198.478 46.8525C199.646 46.8525 200.553 47.2371 201.201 48.0063C201.848 48.7756 202.172 49.8768 202.172 51.3101V51.9492H196.087C196.11 52.8346 196.367 53.5513 196.859 54.0991C197.357 54.6414 197.988 54.9126 198.752 54.9126C199.294 54.9126 199.754 54.8019 200.13 54.5806C200.506 54.3592 200.835 54.0659 201.118 53.7007L202.056 54.4312C201.303 55.5877 200.174 56.166 198.669 56.166ZM198.478 48.1143C197.858 48.1143 197.338 48.3411 196.917 48.7949C196.497 49.2432 196.237 49.874 196.137 50.6875H200.636V50.5713C200.592 49.791 200.382 49.1878 200.005 48.7617C199.629 48.3301 199.12 48.1143 198.478 48.1143ZM205.409 47.0186L205.459 48.1475C206.145 47.2842 207.042 46.8525 208.148 46.8525C210.047 46.8525 211.004 47.9233 211.021 50.0649V56H209.485V50.0566C209.479 49.4092 209.33 48.9305 209.037 48.6206C208.749 48.3107 208.298 48.1558 207.684 48.1558C207.186 48.1558 206.748 48.2886 206.372 48.5542C205.996 48.8198 205.702 49.1685 205.492 49.6001V56H203.957V47.0186H205.409ZM215.42 44.8438V47.0186H217.097V48.2056H215.42V53.7754C215.42 54.1351 215.495 54.4062 215.644 54.5889C215.793 54.766 216.048 54.8545 216.408 54.8545C216.585 54.8545 216.828 54.8213 217.138 54.7549V56C216.734 56.1107 216.341 56.166 215.959 56.166C215.273 56.166 214.756 55.9585 214.407 55.5435C214.059 55.1284 213.884 54.5391 213.884 53.7754V48.2056H212.249V47.0186H213.884V44.8438H215.42ZM224.443 56C224.354 55.8229 224.282 55.5075 224.227 55.0537C223.513 55.7952 222.661 56.166 221.67 56.166C220.785 56.166 220.057 55.917 219.487 55.4189C218.923 54.9154 218.641 54.279 218.641 53.5098C218.641 52.5745 218.995 51.8496 219.703 51.335C220.417 50.8148 221.419 50.5547 222.708 50.5547H224.202V49.8491C224.202 49.3123 224.042 48.8862 223.721 48.5708C223.4 48.2498 222.927 48.0894 222.301 48.0894C221.753 48.0894 221.294 48.2277 220.923 48.5044C220.553 48.7811 220.367 49.1159 220.367 49.5088H218.823C218.823 49.0605 218.981 48.6289 219.296 48.2139C219.617 47.7933 220.049 47.4613 220.591 47.2178C221.139 46.9743 221.74 46.8525 222.393 46.8525C223.427 46.8525 224.238 47.1126 224.825 47.6328C225.411 48.1475 225.716 48.8586 225.738 49.7661V53.8999C225.738 54.7244 225.843 55.3802 226.053 55.8672V56H224.443ZM221.895 54.8296C222.376 54.8296 222.833 54.7051 223.264 54.4561C223.696 54.207 224.008 53.8833 224.202 53.4849V51.6421H222.999C221.117 51.6421 220.176 52.1927 220.176 53.2939C220.176 53.7754 220.337 54.1517 220.658 54.4229C220.979 54.694 221.391 54.8296 221.895 54.8296ZM233.375 53.6177C233.375 53.2026 233.217 52.8817 232.901 52.6548C232.591 52.4224 232.046 52.2231 231.266 52.0571C230.491 51.8911 229.874 51.6919 229.415 51.4595C228.961 51.2271 228.624 50.9504 228.402 50.6294C228.187 50.3084 228.079 49.9266 228.079 49.4839C228.079 48.7479 228.389 48.1253 229.008 47.6162C229.634 47.1071 230.431 46.8525 231.399 46.8525C232.417 46.8525 233.242 47.1154 233.873 47.6411C234.509 48.1668 234.827 48.8392 234.827 49.6582H233.283C233.283 49.2376 233.103 48.8752 232.744 48.5708C232.389 48.2664 231.941 48.1143 231.399 48.1143C230.84 48.1143 230.403 48.236 230.087 48.4795C229.772 48.723 229.614 49.0412 229.614 49.4341C229.614 49.8049 229.761 50.0843 230.054 50.2725C230.347 50.4606 230.876 50.6405 231.64 50.812C232.409 50.9836 233.031 51.1883 233.507 51.4263C233.983 51.6642 234.335 51.952 234.562 52.2896C234.794 52.6216 234.91 53.0283 234.91 53.5098C234.91 54.3122 234.589 54.9569 233.947 55.4438C233.305 55.9253 232.472 56.166 231.449 56.166C230.729 56.166 230.093 56.0387 229.54 55.7842C228.986 55.5296 228.552 55.1755 228.236 54.7217C227.926 54.2624 227.771 53.7671 227.771 53.2358H229.307C229.335 53.7505 229.54 54.16 229.921 54.4644C230.309 54.7632 230.818 54.9126 231.449 54.9126C232.03 54.9126 232.495 54.7964 232.843 54.564C233.197 54.326 233.375 54.0106 233.375 53.6177Z" fill="#00C5FB"/>
</svg>
