<svg width="259" height="80" viewBox="0 0 259 80" fill="none" xmlns="http://www.w3.org/2000/svg">
<rect width="259" height="80" rx="6" fill="white"/>
<path fill-rule="evenodd" clip-rule="evenodd" d="M40.0708 67.4286C55.2192 67.4286 67.4994 55.1484 67.4994 40C67.4994 24.8516 55.2192 12.5714 40.0708 12.5714C24.9224 12.5714 12.6422 24.8516 12.6422 40C12.6422 55.1484 24.9224 67.4286 40.0708 67.4286ZM40.0708 72C57.7439 72 72.0708 57.6731 72.0708 40C72.0708 22.3269 57.7439 8 40.0708 8C22.3977 8 8.0708 22.3269 8.0708 40C8.0708 57.6731 22.3977 72 40.0708 72Z" fill="#00C5FB"/>
<path fill-rule="evenodd" clip-rule="evenodd" d="M49.3135 26.2858L44.6947 34.2857H30.1733L40.0707 51.4286L48.2415 37.2764L48.2454 37.2787L54.5921 26.2858H62.9279L40.0708 66.2858L17.2136 26.2858H49.3135Z" fill="#00C5FB"/>
<path d="M96.9595 32.4717C96.9595 31.5033 96.6177 30.7627 95.9341 30.25C95.2505 29.7259 94.02 29.179 92.2427 28.6094C90.4653 28.0283 89.0583 27.4587 88.0215 26.9004C85.196 25.3737 83.7832 23.3172 83.7832 20.731C83.7832 19.3866 84.1592 18.1903 84.9111 17.1421C85.6745 16.0825 86.7625 15.2565 88.1753 14.6641C89.5994 14.0716 91.1945 13.7754 92.9604 13.7754C94.7378 13.7754 96.3215 14.1001 97.7114 14.7495C99.1014 15.3875 100.178 16.2933 100.941 17.4668C101.716 18.6403 102.104 19.9733 102.104 21.4658H96.9766C96.9766 20.3265 96.6177 19.4435 95.8999 18.8169C95.1821 18.1789 94.1738 17.8599 92.875 17.8599C91.6217 17.8599 90.6476 18.1276 89.9526 18.6631C89.2576 19.1872 88.9102 19.8822 88.9102 20.748C88.9102 21.557 89.3146 22.2349 90.1235 22.7817C90.9438 23.3286 92.1458 23.8413 93.7295 24.3198C96.6462 25.1971 98.771 26.2852 100.104 27.584C101.437 28.8828 102.104 30.5007 102.104 32.4375C102.104 34.5908 101.289 36.2827 99.6597 37.5132C98.0304 38.7323 95.8372 39.3418 93.0801 39.3418C91.166 39.3418 89.4229 38.9943 87.8506 38.2993C86.2783 37.5929 85.0763 36.6302 84.2446 35.4111C83.4243 34.1921 83.0142 32.7793 83.0142 31.1729H88.1582C88.1582 33.9186 89.7988 35.2915 93.0801 35.2915C94.2992 35.2915 95.2505 35.0465 95.9341 34.5566C96.6177 34.0553 96.9595 33.3604 96.9595 32.4717ZM126.029 27.1226C126.029 29.5721 125.596 31.7197 124.73 33.5654C123.865 35.4111 122.623 36.8353 121.005 37.8379C119.398 38.8405 117.553 39.3418 115.468 39.3418C113.406 39.3418 111.566 38.8462 109.948 37.855C108.33 36.8638 107.077 35.451 106.188 33.6167C105.299 31.771 104.849 29.6519 104.838 27.2593V26.0288C104.838 23.5793 105.277 21.4259 106.154 19.5688C107.042 17.7004 108.29 16.2705 109.896 15.2793C111.514 14.2767 113.36 13.7754 115.434 13.7754C117.507 13.7754 119.347 14.2767 120.954 15.2793C122.571 16.2705 123.819 17.7004 124.696 19.5688C125.585 21.4259 126.029 23.5736 126.029 26.0117V27.1226ZM120.834 25.9946C120.834 23.3856 120.367 21.4032 119.433 20.0474C118.498 18.6916 117.165 18.0137 115.434 18.0137C113.713 18.0137 112.386 18.6859 111.452 20.0303C110.517 21.3633 110.045 23.3229 110.033 25.9092V27.1226C110.033 29.6632 110.5 31.6343 111.435 33.0356C112.369 34.437 113.713 35.1377 115.468 35.1377C117.188 35.1377 118.51 34.4655 119.433 33.1211C120.355 31.7653 120.823 29.7943 120.834 27.208V25.9946ZM144.726 28.8315H134.882V39H129.755V14.1172H145.956V18.27H134.882V24.6958H144.726V28.8315ZM158.124 32.8306L163.764 14.1172H169.472L160.807 39H155.458L146.828 14.1172H152.519L158.124 32.8306ZM186.801 28.2163H176.957V34.8813H188.51V39H171.83V14.1172H188.476V18.27H176.957V24.2002H186.801V28.2163ZM211.752 39H206.625L196.645 22.6279V39H191.518V14.1172H196.645L206.642 30.5234V14.1172H211.752V39ZM234.447 18.27H226.825V39H221.698V18.27H214.179V14.1172H234.447V18.27Z" fill="#00C5FB"/>
<path d="M94.1543 57.231C94.1543 58.4207 93.944 59.4639 93.5234 60.3604C93.1029 61.2568 92.4997 61.9486 91.7139 62.4355C90.9336 62.9225 90.0371 63.166 89.0244 63.166C88.0228 63.166 87.1291 62.9253 86.3433 62.4438C85.5575 61.9624 84.9487 61.2762 84.5171 60.3853C84.0854 59.4888 83.8669 58.4595 83.8613 57.2974V56.6997C83.8613 55.5099 84.0744 54.464 84.5005 53.562C84.9321 52.6545 85.5381 51.96 86.3184 51.4785C87.1042 50.9915 88.0007 50.748 89.0078 50.748C90.015 50.748 90.9087 50.9915 91.689 51.4785C92.4748 51.96 93.0807 52.6545 93.5068 53.562C93.9385 54.464 94.1543 55.5072 94.1543 56.6914V57.231ZM91.6309 56.6831C91.6309 55.4159 91.404 54.453 90.9502 53.7944C90.4964 53.1359 89.849 52.8066 89.0078 52.8066C88.1722 52.8066 87.5275 53.1331 87.0737 53.7861C86.62 54.4336 86.3903 55.3854 86.3848 56.6416V57.231C86.3848 58.465 86.6117 59.4224 87.0654 60.103C87.5192 60.7837 88.1722 61.124 89.0244 61.124C89.86 61.124 90.502 60.7975 90.9502 60.1445C91.3984 59.486 91.6253 58.5286 91.6309 57.2725V56.6831ZM100.853 56.2681C100.527 56.2238 100.239 56.2017 99.9897 56.2017C99.0822 56.2017 98.4873 56.5088 98.2051 57.123V63H95.8062V54.0186H98.0723L98.1387 55.0894C98.6201 54.2648 99.2869 53.8525 100.139 53.8525C100.405 53.8525 100.654 53.8885 100.886 53.9604L100.853 56.2681ZM101.5 58.4429C101.5 57.0649 101.827 55.9554 102.48 55.1143C103.139 54.2731 104.024 53.8525 105.136 53.8525C106.121 53.8525 106.888 54.1901 107.436 54.8652L107.535 54.0186H109.71V62.7012C109.71 63.487 109.53 64.1704 109.17 64.7515C108.816 65.3325 108.315 65.7752 107.668 66.0796C107.021 66.384 106.262 66.5361 105.394 66.5361C104.735 66.5361 104.093 66.4033 103.468 66.1377C102.842 65.8776 102.369 65.54 102.048 65.125L103.111 63.6641C103.708 64.3337 104.433 64.6685 105.286 64.6685C105.922 64.6685 106.417 64.4969 106.771 64.1538C107.126 63.8162 107.303 63.3348 107.303 62.7095V62.228C106.749 62.8534 106.022 63.166 105.12 63.166C104.041 63.166 103.166 62.7454 102.497 61.9043C101.833 61.0576 101.5 59.937 101.5 58.5425V58.4429ZM103.899 58.6172C103.899 59.4307 104.063 60.0698 104.389 60.5347C104.716 60.994 105.164 61.2236 105.734 61.2236C106.464 61.2236 106.987 60.9497 107.303 60.4019V56.625C106.982 56.0771 106.464 55.8032 105.75 55.8032C105.175 55.8032 104.721 56.0384 104.389 56.5088C104.063 56.9792 103.899 57.682 103.899 58.6172ZM116.766 63C116.655 62.7842 116.575 62.5158 116.525 62.1948C115.944 62.8423 115.188 63.166 114.259 63.166C113.379 63.166 112.648 62.9115 112.067 62.4023C111.492 61.8932 111.204 61.2513 111.204 60.4766C111.204 59.5247 111.556 58.7943 112.258 58.2852C112.967 57.776 113.988 57.5187 115.321 57.5132H116.425V56.9985C116.425 56.5835 116.317 56.2515 116.102 56.0024C115.891 55.7534 115.556 55.6289 115.097 55.6289C114.693 55.6289 114.375 55.7257 114.143 55.9194C113.916 56.1131 113.802 56.3787 113.802 56.7163H111.403C111.403 56.1961 111.564 55.7147 111.885 55.272C112.206 54.8293 112.66 54.4834 113.246 54.2344C113.833 53.9798 114.491 53.8525 115.222 53.8525C116.328 53.8525 117.206 54.132 117.853 54.6909C118.506 55.2443 118.833 56.0246 118.833 57.0317V60.9248C118.838 61.777 118.957 62.4217 119.189 62.8589V63H116.766ZM114.782 61.3315C115.136 61.3315 115.462 61.2541 115.761 61.0991C116.06 60.9386 116.281 60.7256 116.425 60.46V58.916H115.529C114.328 58.916 113.689 59.3311 113.611 60.1611L113.603 60.3022C113.603 60.6011 113.708 60.8473 113.918 61.041C114.129 61.2347 114.417 61.3315 114.782 61.3315ZM122.883 54.0186L122.958 55.0562C123.6 54.2537 124.46 53.8525 125.54 53.8525C126.491 53.8525 127.2 54.132 127.665 54.6909C128.129 55.2498 128.367 56.0854 128.378 57.1978V63H125.979V57.2559C125.979 56.7467 125.869 56.3787 125.647 56.1519C125.426 55.9194 125.058 55.8032 124.543 55.8032C123.868 55.8032 123.362 56.091 123.024 56.6665V63H120.625V54.0186H122.883ZM132.736 63H130.329V54.0186H132.736V63ZM130.188 51.6943C130.188 51.3346 130.307 51.0386 130.545 50.8062C130.788 50.5737 131.118 50.4575 131.533 50.4575C131.942 50.4575 132.269 50.5737 132.512 50.8062C132.756 51.0386 132.877 51.3346 132.877 51.6943C132.877 52.0596 132.753 52.3584 132.504 52.5908C132.26 52.8232 131.937 52.9395 131.533 52.9395C131.129 52.9395 130.802 52.8232 130.553 52.5908C130.31 52.3584 130.188 52.0596 130.188 51.6943ZM137.476 61.0659H141.867V63H134.413V61.5391L138.638 55.9609H134.538V54.0186H141.734V55.438L137.476 61.0659ZM148.574 63C148.464 62.7842 148.383 62.5158 148.333 62.1948C147.752 62.8423 146.997 63.166 146.067 63.166C145.188 63.166 144.457 62.9115 143.876 62.4023C143.3 61.8932 143.013 61.2513 143.013 60.4766C143.013 59.5247 143.364 58.7943 144.067 58.2852C144.775 57.776 145.796 57.5187 147.13 57.5132H148.234V56.9985C148.234 56.5835 148.126 56.2515 147.91 56.0024C147.7 55.7534 147.365 55.6289 146.906 55.6289C146.502 55.6289 146.184 55.7257 145.951 55.9194C145.724 56.1131 145.611 56.3787 145.611 56.7163H143.212C143.212 56.1961 143.372 55.7147 143.693 55.272C144.014 54.8293 144.468 54.4834 145.055 54.2344C145.641 53.9798 146.3 53.8525 147.03 53.8525C148.137 53.8525 149.014 54.132 149.662 54.6909C150.315 55.2443 150.641 56.0246 150.641 57.0317V60.9248C150.647 61.777 150.766 62.4217 150.998 62.8589V63H148.574ZM146.59 61.3315C146.944 61.3315 147.271 61.2541 147.57 61.0991C147.869 60.9386 148.09 60.7256 148.234 60.46V58.916H147.337C146.137 58.916 145.497 59.3311 145.42 60.1611L145.412 60.3022C145.412 60.6011 145.517 60.8473 145.727 61.041C145.937 61.2347 146.225 61.3315 146.59 61.3315ZM159.589 51.8105V54.0186H161.125V55.7783H159.589V60.2607C159.589 60.5928 159.653 60.8307 159.78 60.9746C159.908 61.1185 160.151 61.1904 160.511 61.1904C160.776 61.1904 161.012 61.1711 161.216 61.1323V62.9502C160.746 63.0941 160.262 63.166 159.764 63.166C158.081 63.166 157.224 62.3166 157.19 60.6177V55.7783H155.879V54.0186H157.19V51.8105H159.589ZM167.84 62.0869C167.248 62.8063 166.429 63.166 165.383 63.166C164.42 63.166 163.684 62.8893 163.175 62.3359C162.672 61.7826 162.414 60.9718 162.403 59.9038V54.0186H164.802V59.8208C164.802 60.756 165.228 61.2236 166.081 61.2236C166.894 61.2236 167.453 60.9414 167.757 60.377V54.0186H170.165V63H167.907L167.84 62.0869ZM176.838 60.5181C176.838 60.2248 176.692 59.9951 176.398 59.8291C176.111 59.6576 175.646 59.5054 175.004 59.3726C172.868 58.9243 171.8 58.0168 171.8 56.6499C171.8 55.853 172.129 55.189 172.788 54.6577C173.452 54.1209 174.318 53.8525 175.386 53.8525C176.526 53.8525 177.436 54.1209 178.117 54.6577C178.803 55.1945 179.146 55.8918 179.146 56.7495H176.747C176.747 56.4064 176.636 56.1242 176.415 55.9028C176.194 55.6759 175.848 55.5625 175.377 55.5625C174.973 55.5625 174.661 55.6538 174.439 55.8364C174.218 56.019 174.107 56.2515 174.107 56.5337C174.107 56.7993 174.232 57.0151 174.481 57.1812C174.736 57.3416 175.162 57.4827 175.759 57.6045C176.357 57.7207 176.861 57.8535 177.27 58.0029C178.537 58.4678 179.171 59.2729 179.171 60.4185C179.171 61.2375 178.819 61.9015 178.117 62.4106C177.414 62.9142 176.506 63.166 175.394 63.166C174.641 63.166 173.972 63.0332 173.385 62.7676C172.804 62.4964 172.348 62.1284 172.016 61.6636C171.684 61.1932 171.518 60.6868 171.518 60.1445H173.792C173.814 60.5706 173.972 60.8971 174.265 61.124C174.558 61.3509 174.951 61.4644 175.444 61.4644C175.903 61.4644 176.249 61.3786 176.481 61.207C176.719 61.0299 176.838 60.8003 176.838 60.5181ZM188.318 60.0698L189.987 54.0186H192.494L189.464 63H187.173L184.143 54.0186H186.65L188.318 60.0698ZM197.574 63.166C196.257 63.166 195.183 62.762 194.353 61.9541C193.528 61.1462 193.116 60.0698 193.116 58.7251V58.4927C193.116 57.5907 193.291 56.7855 193.639 56.0771C193.988 55.3633 194.48 54.8154 195.117 54.4336C195.759 54.0462 196.489 53.8525 197.308 53.8525C198.537 53.8525 199.502 54.2399 200.205 55.0146C200.913 55.7894 201.268 56.8879 201.268 58.3101V59.2896H195.548C195.626 59.8761 195.858 60.3465 196.246 60.7007C196.639 61.0549 197.134 61.2319 197.731 61.2319C198.656 61.2319 199.378 60.8971 199.898 60.2275L201.077 61.5474C200.717 62.0565 200.23 62.4549 199.616 62.7427C199.001 63.0249 198.321 63.166 197.574 63.166ZM197.3 55.7949C196.824 55.7949 196.437 55.9554 196.138 56.2764C195.844 56.5973 195.656 57.0566 195.573 57.6543H198.91V57.4634C198.899 56.9321 198.755 56.5226 198.479 56.2349C198.202 55.9416 197.809 55.7949 197.3 55.7949ZM204.845 54.0186L204.92 55.0562C205.562 54.2537 206.422 53.8525 207.501 53.8525C208.453 53.8525 209.162 54.132 209.626 54.6909C210.091 55.2498 210.329 56.0854 210.34 57.1978V63H207.941V57.2559C207.941 56.7467 207.831 56.3787 207.609 56.1519C207.388 55.9194 207.02 55.8032 206.505 55.8032C205.83 55.8032 205.324 56.091 204.986 56.6665V63H202.587V54.0186H204.845ZM215.039 51.8105V54.0186H216.574V55.7783H215.039V60.2607C215.039 60.5928 215.102 60.8307 215.229 60.9746C215.357 61.1185 215.6 61.1904 215.96 61.1904C216.226 61.1904 216.461 61.1711 216.666 61.1323V62.9502C216.195 63.0941 215.711 63.166 215.213 63.166C213.531 63.166 212.673 62.3166 212.64 60.6177V55.7783H211.328V54.0186H212.64V51.8105H215.039ZM223.115 63C223.005 62.7842 222.924 62.5158 222.875 62.1948C222.293 62.8423 221.538 63.166 220.608 63.166C219.729 63.166 218.998 62.9115 218.417 62.4023C217.841 61.8932 217.554 61.2513 217.554 60.4766C217.554 59.5247 217.905 58.7943 218.608 58.2852C219.316 57.776 220.337 57.5187 221.671 57.5132H222.775V56.9985C222.775 56.5835 222.667 56.2515 222.451 56.0024C222.241 55.7534 221.906 55.6289 221.447 55.6289C221.043 55.6289 220.725 55.7257 220.492 55.9194C220.265 56.1131 220.152 56.3787 220.152 56.7163H217.753C217.753 56.1961 217.913 55.7147 218.234 55.272C218.555 54.8293 219.009 54.4834 219.596 54.2344C220.182 53.9798 220.841 53.8525 221.571 53.8525C222.678 53.8525 223.555 54.132 224.203 54.6909C224.856 55.2443 225.182 56.0246 225.182 57.0317V60.9248C225.188 61.777 225.307 62.4217 225.539 62.8589V63H223.115ZM221.131 61.3315C221.486 61.3315 221.812 61.2541 222.111 61.0991C222.41 60.9386 222.631 60.7256 222.775 60.46V58.916H221.878C220.678 58.916 220.038 59.3311 219.961 60.1611L219.953 60.3022C219.953 60.6011 220.058 60.8473 220.268 61.041C220.478 61.2347 220.766 61.3315 221.131 61.3315ZM231.889 60.5181C231.889 60.2248 231.743 59.9951 231.449 59.8291C231.161 59.6576 230.697 59.5054 230.055 59.3726C227.919 58.9243 226.851 58.0168 226.851 56.6499C226.851 55.853 227.18 55.189 227.838 54.6577C228.502 54.1209 229.368 53.8525 230.437 53.8525C231.576 53.8525 232.487 54.1209 233.167 54.6577C233.854 55.1945 234.197 55.8918 234.197 56.7495H231.798C231.798 56.4064 231.687 56.1242 231.466 55.9028C231.244 55.6759 230.899 55.5625 230.428 55.5625C230.024 55.5625 229.712 55.6538 229.49 55.8364C229.269 56.019 229.158 56.2515 229.158 56.5337C229.158 56.7993 229.283 57.0151 229.532 57.1812C229.786 57.3416 230.212 57.4827 230.81 57.6045C231.408 57.7207 231.911 57.8535 232.321 58.0029C233.588 58.4678 234.222 59.2729 234.222 60.4185C234.222 61.2375 233.87 61.9015 233.167 62.4106C232.465 62.9142 231.557 63.166 230.445 63.166C229.692 63.166 229.023 63.0332 228.436 62.7676C227.855 62.4964 227.398 62.1284 227.066 61.6636C226.734 61.1932 226.568 60.6868 226.568 60.1445H228.843C228.865 60.5706 229.023 60.8971 229.316 61.124C229.609 61.3509 230.002 61.4644 230.495 61.4644C230.954 61.4644 231.3 61.3786 231.532 61.207C231.77 61.0299 231.889 60.8003 231.889 60.5181Z" fill="#00C5FB"/>
</svg>
