<svg id="Layer_1" enable-background="new 0 0 64 64" height="512" viewBox="0 0 64 64" width="512" xmlns="http://www.w3.org/2000/svg"><path d="m51 6h-38c-1.1 0-2 .9-2 2v25h42v-25c0-1.1-.9-2-2-2z" fill="#e3dfda"/><path d="m6 35v-2h52v2c0 1.1-.9 2-2 2h-48c-1.1 0-2-.9-2-2z" fill="#bdbbb9"/><path d="m31 12h10v17h-10z" fill="#f4c32f"/><path d="m17 3h14v26h-14z" fill="#215987"/><path d="m46 23h2v6h-2z" fill="#8e6c55"/><g fill="#e3b52c"><path d="m31 17h10v2h-10z"/><path d="m31 22h10v2h-10z"/><path d="m35 12h2v17h-2z"/></g><path d="m21 22h6v7h-6z" fill="#2c76b3"/><path d="m21 7h6v11h-6z" fill="#2c76b3"/><path d="m21 7h6v6h-6z" fill="#4882b3"/><path d="m32 48c-4.5 0-8.6-2.5-10.7-6.5l1.8-.9c1.7 3.4 5.1 5.5 8.9 5.5z" fill="#c2c2c2"/><path d="m35.3 47.5-.5-1.9c1-.3 1.9-.7 2.7-1.2l1.1 1.7c-1.1.6-2.2 1.1-3.3 1.4z" fill="#c2c2c2"/><path d="m40.7 44.2-1.5-1.4c.7-.7 1.2-1.5 1.6-2.3l1.8.9c-.4 1.1-1.1 2-1.9 2.8z" fill="#c2c2c2"/><path d="m56 37-2 6 3 3.3c-2.2 3.2-1.9 2.7-4.1 5.8l-4.2-1.8c-2.2 1.6-2.8 2.1-5 3.7l.4 4.7c-3.6 1.2-3 1-6.6 2.2l-2.4-4c-2.7 0-3.4 0-6.1 0l-2.4 4c-3.6-1.2-3-1-6.6-2.2l.4-4.7-5-3.7-4.2 1.8c-2.3-3.1-2-2.6-4.2-5.8l3-3.3-2-6h8.1c1.1 8.8 9.1 15 17.9 13.9 7.3-.9 13-6.6 13.9-13.9z" fill="#3a3a51"/><path d="m47 14c1.1 0 2 .9 2 2v6c0 1.1-.9 2-2 2-1.1 0-2-.9-2-2v-6c0-1.1.9-2 2-2z" fill="#23b36b"/><path d="m14 28h36v2h-36z" fill="#215987"/><path d="m59 35v-3h-5v-24c0-1.7-1.3-3-3-3h-19v-3h-16v3h-3c-1.7 0-3 1.3-3 3v24h-5v3c0 1.4.9 2.5 2.2 2.9l1.6 4.9-3.1 3.5 5 7.2 4.5-1.9 4 3-.4 4.9 8.1 2.7 2.5-4.2h5l2.5 4.2 8.1-2.7-.4-4.9 4-3 4.5 1.9 5-7.2-3.1-3.5 1.6-4.9c1.5-.4 2.4-1.5 2.4-2.9zm-27-22h3v4h-3zm0 6h3v3h-3zm0 5h3v4h-3zm-14-20h12v24h-2v-7h-8v7h-2zm8 19v5h-4v-5zm-14-15c0-.6.4-1 1-1h3v21h-2v2h36v-2h-2v-3.2c1.2-.4 2-1.5 2-2.8v-6c0-1.7-1.3-3-3-3s-3 1.3-3 3v6c0 1.3.8 2.4 2 2.8v3.2h-4v-17h-10v-4h19c.6 0 1 .4 1 1v24h-40zm28 11v3h-3v-3zm-3-2v-4h3v4zm3 7v4h-3v-4zm6-2v-6c0-.6.4-1 1-1s1 .4 1 1v6c0 .6-.4 1-1 1s-1-.4-1-1zm9.7 24.4-3.2 4.5-4-1.7-5.9 4.4.4 4.5-5.1 1.7-2.3-3.8h-7.3l-2.3 3.8-5-1.7.4-4.5-5.9-4.4-4 1.7-3.2-4.5 2.9-3.2-1.8-5.2h5.9c1.7 9.2 10.5 15.4 19.7 13.7 7-1.2 12.5-6.7 13.7-13.7h5.9l-1.7 5.2zm-38.4-8.4h29.4c-1.7 8.1-9.6 13.4-17.7 11.7-5.9-1.2-10.5-5.8-11.7-11.7zm38.7-2h-48c-.6 0-1-.4-1-1v-1h50v1c0 .6-.4 1-1 1z"/><path d="m28 6h-8v13h8zm-2 11h-4v-3h4zm0-5h-4v-4h4z"/><path d="m32 48v-2c-3.8 0-7.2-2.1-8.9-5.5l-1.8.9c2.1 4.1 6.2 6.6 10.7 6.6z"/><path d="m38.5 46.1-1.1-1.7c-.8.5-1.8 1-2.7 1.2l.5 1.9c1.2-.3 2.3-.8 3.3-1.4z"/><path d="m42.7 41.5-1.8-.9c-.4.8-1 1.6-1.6 2.3l1.5 1.4c.7-.9 1.4-1.8 1.9-2.8z"/></svg>